<svg 
xmlns="http://www.w3.org/2000/svg"
xmlns:xlink="http://www.w3.org/1999/xlink"
width="2992px" height="712px">
<path fill-rule="evenodd"  fill="rgb(0, 0, 0)"
d="M2809.835,711.33 C2707.833,711.33 2627.553,643.226 2627.553,565.60 C2627.553,486.895 2707.833,420.30 2808.891,420.30 L2923.172,420.30 C2935.450,420.30 2971.340,414.380 2971.340,371.59 L2971.340,339.981 C2971.340,267.466 2899.560,213.786 2817.391,213.786 C2764.501,213.786 2715.389,235.446 2687.54,274.58 L2681.388,281.592 L2666.276,270.291 L2671.943,262.757 C2703.110,220.378 2757.890,194.9 2818.336,194.9 C2914.672,194.9 2991.174,261.815 2991.174,339.981 L2991.174,566.2 C2991.174,644.168 2910.894,711.33 2809.835,711.33 ZM2971.340,416.263 C2959.62,434.156 2932.617,437.923 2923.172,437.923 L2809.835,438.865 C2724.833,439.807 2648.331,492.545 2648.331,565.60 C2648.331,637.576 2724.833,691.256 2809.835,691.256 C2893.893,691.256 2971.340,637.576 2971.340,565.60 L2971.340,416.263 ZM2347.94,711.33 L2154.422,194.9 L2174.256,194.9 L2359.372,689.372 L2544.488,194.9 L2564.322,194.9 L2371.650,711.33 L2347.94,711.33 ZM1989.163,60.279 C1973.107,60.279 1961.774,48.978 1961.774,32.968 C1961.774,16.959 1973.107,4.716 1989.163,4.716 C2005.219,4.716 2017.497,16.959 2017.497,32.968 C2017.497,48.978 2005.219,60.279 1989.163,60.279 ZM1652.23,517.31 L1652.23,0.949 L1670.912,0.949 L1670.912,224.145 C1679.413,210.960 1704.913,204.368 1723.803,204.368 L1818.250,204.368 L1818.250,223.203 L1723.803,223.203 C1698.302,223.203 1669.968,234.504 1669.968,267.466 L1669.968,517.973 C1670.912,609.323 1736.81,685.605 1819.194,693.139 L1819.194,711.33 C1723.803,702.557 1652.23,614.974 1652.23,517.31 ZM1456.569,374.826 C1456.569,286.301 1390.456,214.727 1309.232,214.727 C1228.7,214.727 1161.895,286.301 1161.895,374.826 L1161.895,711.33 L1114.671,711.33 L1114.671,374.826 C1114.671,260.873 1201.562,166.698 1308.287,166.698 C1415.12,166.698 1501.904,260.873 1501.904,374.826 L1501.904,711.33 L1456.569,711.33 L1456.569,374.826 ZM228.758,663.945 C277.870,663.945 322.261,643.226 361.928,590.488 L399.707,618.741 C350.595,683.722 294.871,711.33 229.703,711.33 C92.754,711.33 0.196,574.478 0.196,438.865 C0.196,293.835 103.144,166.698 228.758,166.698 C297.704,166.698 350.595,194.9 399.707,258.990 L361.928,287.243 C322.261,234.504 277.870,213.786 228.758,213.786 C128.644,213.786 47.420,311.728 47.420,438.865 C47.420,566.2 128.644,663.945 228.758,663.945 ZM1998.608,711.33 L1979.719,711.33 L1979.719,194.9 L1998.608,194.9 L1998.608,711.33 Z"/>
<path fill-rule="evenodd"  fill="rgb(66, 178, 128)"
d="M934.53,575.126 C933.463,608.49 932.874,639.797 922.850,665.78 C908.699,700.353 876.860,710.936 844.431,710.936 L821.436,710.348 L821.436,664.490 L845.21,665.78 C869.785,665.666 875.91,657.435 879.218,647.440 C885.704,631.566 886.294,603.934 886.884,573.950 C888.652,498.695 898.86,461.68 922.850,438.727 C898.86,414.34 888.652,378.759 886.884,303.505 C886.294,273.521 885.704,245.888 879.218,230.14 C875.91,220.20 866.836,211.789 845.21,212.377 L821.436,212.964 L821.436,167.106 L844.431,166.518 C882.167,165.343 909.879,182.392 922.261,212.964 C932.874,238.245 932.874,270.581 933.463,302.917 C935.232,399.336 949.383,414.622 987.119,416.386 L987.119,461.656 C949.383,463.420 935.822,478.706 934.53,575.126 ZM566.162,665.78 C556.138,639.797 555.548,608.49 554.959,575.126 C553.190,478.706 539.629,463.420 501.893,461.656 L501.893,416.386 C539.629,414.622 553.780,399.336 555.548,302.917 C556.138,270.581 556.138,238.245 566.751,212.964 C579.133,182.392 606.845,165.343 644.581,166.518 L667.576,167.106 L667.576,212.964 L643.991,212.377 C622.175,211.789 613.921,220.20 609.793,230.14 C603.307,245.888 602.718,273.521 602.128,303.505 C600.359,378.759 590.926,414.34 566.162,438.727 C590.926,461.68 600.359,498.695 602.128,573.950 C602.718,603.934 603.307,631.566 609.793,647.440 C613.921,657.435 619.227,665.666 643.991,665.78 L667.576,664.490 L667.576,710.348 L644.581,710.936 C612.152,710.936 580.312,700.353 566.162,665.78 Z"/>
</svg>